<?xml version="1.0" encoding="utf-8"?>
<!-- Generator: Adobe Illustrator 24.2.1, SVG Export Plug-In . SVG Version: 6.00 Build 0)  -->
<svg version="1.1" id="Layer_1" xmlns="http://www.w3.org/2000/svg" xmlns:xlink="http://www.w3.org/1999/xlink" x="0px" y="0px"
	 viewBox="0 0 150.6 26.7" style="enable-background:new 0 0 150.6 26.7;" xml:space="preserve">
<path d="M20.3,11.7c-0.8,0.8-1.2,1.8-1,2.9l0,0c0.2,2.4-1.6,4.5-4,4.7c-0.2,0-0.5,0-0.7,0l0,0c-2-0.2-3.8,1.3-4,3.3s1.3,3.8,3.3,4
	s3.8-1.3,4-3.3c0-0.2,0-0.5,0-0.7l0,0c-0.2-2.4,1.6-4.5,4-4.7c0.2,0,0.5,0,0.7,0l0,0c2,0.2,3.8-1.3,4-3.3s-1.3-3.8-3.3-4
	C22.2,10.5,21.1,10.9,20.3,11.7L20.3,11.7z"/>
<path d="M13,17L13,17c2,0.2,3.8-1.3,4-3.3c0-0.2,0-0.5,0-0.7l0,0c-0.2-2.4,1.6-4.5,4-4.7c0.2,0,0.5,0,0.7,0l0,0c2,0.2,3.8-1.3,4-3.3
	s-1.3-3.8-3.3-4s-3.8,1.3-4,3.3c0,0.2,0,0.5,0,0.7l0,0c0.2,2.4-1.6,4.5-4,4.7c-0.2,0-0.5,0-0.7,0l0,0c-2-0.2-3.8,1.3-4,3.2
	c0,0.2,0,0.5,0,0.7l0,0c0.2,2.4-1.6,4.5-4,4.7c-0.2,0-0.5,0-0.7,0l0,0c-2-0.2-3.8,1.3-4,3.3s1.3,3.8,3.3,4s3.8-1.3,4-3.3
	c0-0.2,0-0.5,0-0.7l0,0c-0.2-2.4,1.6-4.5,4-4.7C12.5,16.9,12.7,16.9,13,17z"/>
<path d="M6.3,15c0.8-0.8,1.2-1.8,1-2.9l0,0c-0.2-2.4,1.6-4.5,4-4.7c0.2,0,0.5,0,0.7,0l0,0C14,7.5,15.8,6,16,4c0.2-2-1.3-3.8-3.3-4
	s-3.8,1.3-4,3.3c0,0.2,0,0.5,0,0.7l0,0c0.2,2.4-1.6,4.5-4,4.7c-0.2,0-0.5,0-0.7,0l0,0C2,8.5,0.2,10,0,12s1.3,3.8,3.3,4
	C4.4,16.1,5.5,15.7,6.3,15L6.3,15z"/>
<path d="M36.2,3.8h3.6v17.6h-3.6V3.8z"/>
<path d="M41.9,15.4c0-3.5,2.8-6.4,6.4-6.4c3.5,0,6.4,2.8,6.4,6.4s-2.8,6.4-6.4,6.4l0,0C44.8,21.8,41.9,19,41.9,15.4
	C41.9,15.5,41.9,15.5,41.9,15.4z M51.1,15.4c0-1.5-1.3-2.7-2.9-2.7c-1.5,0-2.7,1.3-2.7,2.9c0,1.5,1.3,2.7,2.8,2.7s2.7-1.1,2.8-2.6
	C51.1,15.6,51.1,15.5,51.1,15.4z"/>
<path d="M69.1,9.4v11.5c0,4.1-3.2,5.8-6.4,5.8c-2.3,0.2-4.5-1-5.7-2.9l3.1-1.8c0.5,1,1.6,1.6,2.8,1.5c1.3,0.2,2.5-0.7,2.7-2.1
	c0-0.2,0-0.4,0-0.5v-1.1c-0.9,1.1-2.2,1.6-3.5,1.6c-3.4-0.1-6.1-2.9-5.9-6.3c0.1-3.2,2.7-5.8,5.9-5.9c1.4-0.1,2.7,0.5,3.5,1.6V9.4
	H69.1z M65.6,15.2c0.1-1.6-1.2-3-2.8-3c-1.6-0.1-3,1.2-3,2.8c-0.1,1.6,1.2,3,2.8,3h0.1c1.5,0.1,2.8-1,2.9-2.5
	C65.6,15.4,65.6,15.3,65.6,15.2z"/>
<path d="M71.2,15.4c0-3.5,2.8-6.4,6.4-6.4c3.5,0,6.4,2.8,6.4,6.4s-2.8,6.4-6.4,6.4l0,0C74.1,21.8,71.2,19,71.2,15.4
	C71.2,15.5,71.2,15.5,71.2,15.4z M80.4,15.4c0-1.5-1.3-2.7-2.9-2.7c-1.5,0-2.7,1.3-2.7,2.9c0,1.5,1.3,2.7,2.8,2.7s2.7-1.1,2.8-2.6
	C80.4,15.6,80.4,15.5,80.4,15.4z"/>
<path d="M85.7,6.2c0-1.2,1-2.2,2.2-2.2s2.2,1,2.2,2.2s-1,2.2-2.2,2.2l0,0C86.7,8.3,85.7,7.4,85.7,6.2z M86.1,9.4h3.6v12.1h-3.6V9.4z
	"/>
<path d="M105.4,15.4c0.2,3.3-2.4,6.2-5.7,6.4l0,0c-1.4,0.1-2.7-0.5-3.6-1.5v6h-3.6V9.4H96v1.1c0.9-1,2.2-1.5,3.6-1.5
	C102.9,9.2,105.5,12.1,105.4,15.4L105.4,15.4z M101.7,15.4c0-1.6-1.4-2.8-2.9-2.8s-2.9,1.4-2.8,3c0,1.6,1.3,2.8,2.9,2.8
	c1.5,0.1,2.8-1.1,2.9-2.6C101.7,15.6,101.7,15.5,101.7,15.4z"/>
<path d="M116.5,17.9c0,2.8-2.4,4-5,4c-2.2,0.2-4.2-0.9-5.2-2.9l3.1-1.8c0.3,0.9,1.1,1.5,2.1,1.4c0.9,0,1.3-0.3,1.3-0.7
	c0-1.3-5.9-0.6-5.9-4.8c0-2.6,2.2-4,4.7-4c1.9-0.1,3.7,0.9,4.7,2.6l-3.1,1.7c-0.3-0.6-0.9-1.1-1.6-1.1c-0.6,0-1,0.2-1,0.7
	C110.6,14.3,116.5,13.4,116.5,17.9z"/>
<path d="M129.8,9.4v12.1h-3.6v-1.1c-0.8,1-2.1,1.6-3.5,1.5c-2.4,0-4.5-1.7-4.5-5V9.4h3.6v6.9c-0.1,1.1,0.7,2.1,1.8,2.2
	c0.1,0,0.2,0,0.3,0c1.3,0,2.2-0.8,2.2-2.5V9.4H129.8z"/>
<path d="M150.6,14.1v7.4H147v-7.1c0-1.2-0.6-2-1.7-2c-1.2,0-1.9,0.8-1.9,2.3v6.8h-3.6v-7.1c0-1.2-0.6-2-1.7-2
	c-1.2,0-1.9,0.8-1.9,2.3v6.8h-3.6V9.4h3.6v1.1c0.8-1,2-1.5,3.2-1.4c1.3-0.1,2.5,0.5,3.2,1.6c0.8-1.1,2.1-1.7,3.5-1.6
	C148.8,9.1,150.6,11,150.6,14.1z"/>
</svg>
